<svg width="420" height="230" viewBox="0 0 420 230" xmlns="http://www.w3.org/2000/svg">
  <defs>
    <style>
      .bg   { fill: #0d1117; stroke: #30363d; stroke-width: 1; }
      .ttl  { font: 600 18px 'Segoe UI', Ubuntu, 'Helvetica Neue', sans-serif; fill: #58a6ff; }
      .ln   { font: 400 13px 'Segoe UI', Ubuntu, 'Helvetica Neue', sans-serif; fill: #c9d1d9; }
      .lp   { font: 400 13px 'Segoe UI', Ubuntu, 'Helvetica Neue', sans-serif; fill: #8b949e; }
    </style>
    <mask id="bm">
      <rect x="25" y="55" width="370" height="8" rx="3" fill="white"/>
    </mask>
  </defs>
  <rect class="bg" x="0.5" y="0.5" width="419" height="229" rx="6"/>
  <text x="25" y="38" class="ttl">Most Used Languages</text>
  <rect x="25.0" y="55" width="202.7" height="8" fill="#178600" mask="url(#bm)"/>
  <rect x="227.7" y="55" width="109.0" height="8" fill="#f1e05a" mask="url(#bm)"/>
  <rect x="336.7" y="55" width="42.7" height="8" fill="#b07219" mask="url(#bm)"/>
  <rect x="379.4" y="55" width="6.0" height="8" fill="#e34c26" mask="url(#bm)"/>
  <rect x="385.4" y="55" width="4.2" height="8" fill="#3572A5" mask="url(#bm)"/>
  <rect x="389.6" y="55" width="3.5" height="8" fill="#663399" mask="url(#bm)"/>
  <rect x="393.1" y="55" width="1.7" height="8" fill="#012456" mask="url(#bm)"/>
  <g transform="translate(25, 87)">
    <circle cx="5" cy="5" r="5" fill="#178600"/>
    <text x="16" y="9" class="ln">C#</text>
    <text x="39" y="9" class="lp">54.8%</text>
  </g>
  <g transform="translate(210, 87)">
    <circle cx="5" cy="5" r="5" fill="#f1e05a"/>
    <text x="16" y="9" class="ln">JavaScript</text>
    <text x="99" y="9" class="lp">29.5%</text>
  </g>
  <g transform="translate(25, 119)">
    <circle cx="5" cy="5" r="5" fill="#b07219"/>
    <text x="16" y="9" class="ln">Java</text>
    <text x="54" y="9" class="lp">11.5%</text>
  </g>
  <g transform="translate(210, 119)">
    <circle cx="5" cy="5" r="5" fill="#e34c26"/>
    <text x="16" y="9" class="ln">HTML</text>
    <text x="54" y="9" class="lp">1.6%</text>
  </g>
  <g transform="translate(25, 151)">
    <circle cx="5" cy="5" r="5" fill="#3572A5"/>
    <text x="16" y="9" class="ln">Python</text>
    <text x="69" y="9" class="lp">1.1%</text>
  </g>
  <g transform="translate(210, 151)">
    <circle cx="5" cy="5" r="5" fill="#663399"/>
    <text x="16" y="9" class="ln">CSS</text>
    <text x="46" y="9" class="lp">0.9%</text>
  </g>
  <g transform="translate(25, 183)">
    <circle cx="5" cy="5" r="5" fill="#012456"/>
    <text x="16" y="9" class="ln">PowerShell</text>
    <text x="99" y="9" class="lp">0.5%</text>
  </g>
  <g transform="translate(210, 183)">
    <circle cx="5" cy="5" r="5" fill="#89e051"/>
    <text x="16" y="9" class="ln">Shell</text>
    <text x="62" y="9" class="lp">0.1%</text>
  </g>
</svg>
